HIERARCHY
ROOT Hips
{
 OFFSET 0.000000 0.000000 0.000000
 CHANNELS 6 Xposition Yposition Zposition Yrotation Xrotation Zrotation
 JOINT Chest
 {
  OFFSET 0.000000 9.585900 0.002600
  CHANNELS 3 Yrotation Xrotation Zrotation
  JOINT Chest2
  {
   OFFSET 0.000000 9.601200 -0.005300
   CHANNELS 3 Yrotation Xrotation Zrotation
   JOINT Chest3
   {
    OFFSET 0.000000 9.561800 0.000000
    CHANNELS 3 Yrotation Xrotation Zrotation
    JOINT Chest4
    {
     OFFSET 0.000000 9.552100 0.000000
     CHANNELS 3 Yrotation Xrotation Zrotation
     JOINT Neck
     {
      OFFSET 0.000000 14.453000 0.000000
      CHANNELS 3 Yrotation Xrotation Zrotation
      JOINT Head
      {
       OFFSET 0.000000 8.936500 -0.011300
       CHANNELS 3 Yrotation Xrotation Zrotation
       End Site
       {
        OFFSET 0.000000 17.073600 -0.006000
       }
      }
     }
     JOINT RightCollar
     {
      OFFSET -2.921100 9.558500 0.000000
      CHANNELS 3 Yrotation Xrotation Zrotation
      JOINT RightShoulder
      {
       OFFSET -13.519700 0.000000 0.000000
       CHANNELS 3 Yrotation Xrotation Zrotation
       JOINT RightElbow
       {
        OFFSET 0.000000 -29.696600 0.000000
        CHANNELS 3 Yrotation Xrotation Zrotation
        JOINT RightWrist
        {
         OFFSET 0.000000 -24.004700 0.000000
         CHANNELS 3 Yrotation Xrotation Zrotation
         End Site
         {
          OFFSET 0.000000 -17.728500 0.000000
         }
        }
       }
      }
     }
     JOINT LeftCollar
     {
      OFFSET 2.921100 9.558500 0.000000
      CHANNELS 3 Yrotation Xrotation Zrotation
      JOINT LeftShoulder
      {
       OFFSET 13.519700 0.000000 0.000000
       CHANNELS 3 Yrotation Xrotation Zrotation
       JOINT LeftElbow
       {
        OFFSET 0.000000 -29.696600 0.000000
        CHANNELS 3 Yrotation Xrotation Zrotation
        JOINT LeftWrist
        {
         OFFSET 0.000000 -24.004700 0.000000
         CHANNELS 3 Yrotation Xrotation Zrotation
         End Site
         {
          OFFSET 0.000000 -17.728500 0.000000
         }
        }
       }
      }
     }
    }
   }
  }
 }
 JOINT RightHip
 {
  OFFSET -7.771700 -0.012900 -0.001300
  CHANNELS 3 Yrotation Xrotation Zrotation
  JOINT RightKnee
  {
   OFFSET 0.000000 -40.869800 0.001200
   CHANNELS 3 Yrotation Xrotation Zrotation
   JOINT RightAnkle
   {
    OFFSET 0.000000 -39.717900 0.002100
    CHANNELS 3 Yrotation Xrotation Zrotation
    JOINT RightToe
    {
     OFFSET 0.000000 -4.965400 11.033500
     CHANNELS 3 Yrotation Xrotation Zrotation
     End Site
     {
      OFFSET 0.000000 -1.423100 5.872300
     }
    }
   }
  }
 }
 JOINT LeftHip
 {
  OFFSET 7.771700 -0.012900 -0.001300
  CHANNELS 3 Yrotation Xrotation Zrotation
  JOINT LeftKnee
  {
   OFFSET 0.000000 -40.869800 0.001200
   CHANNELS 3 Yrotation Xrotation Zrotation
   JOINT LeftAnkle
   {
    OFFSET 0.000000 -39.717900 0.002100
    CHANNELS 3 Yrotation Xrotation Zrotation
    JOINT LeftToe
    {
     OFFSET 0.000000 -4.965400 11.033500
     CHANNELS 3 Yrotation Xrotation Zrotation
     End Site
     {
      OFFSET 0.000000 -1.423100 5.872300
     }
    }
   }
  }
 }
}
MOTION
Frames: 8
Frame Time: 0.008333
-27.727226 47.689347 29.535285 176.208785 -40.236680 2.956341 0.609254 16.978142 1.998608 0.288221 9.703157 1.467732 0.388830 12.176187 1.797312 0.295284 9.726512 1.462742 2.062142 21.621157 -3.001584 4.589682 4.523772 -5.977615 5.262420 5.425936 -5.141929 -6.867616 -12.043475 -8.836031 -32.665508 -70.769021 39.855819 -1.876159 -10.402932 -22.323126 -5.949172 -3.979486 -3.649360 6.702395 -16.067572 -7.082161 19.445842 -68.042730 -35.768228 4.191750 3.507993 26.594369 30.972192 -40.077928 -27.145435 -110.273092 65.059444 -103.323378 -0.619523 -2.319157 5.457273 -0.289794 -0.484363 0.140972 -11.310778 -45.106758 4.029363 99.552413 74.789124 99.778736 -2.645789 -4.384394 -7.849614 0.522099 0.026750 -0.083483
-27.744095 47.688963 29.544950 176.227562 -40.112808 3.009801 0.585955 16.921612 1.895511 0.277613 9.689665 1.441288 0.377837 12.134739 1.787753 0.274764 9.700346 1.428837 2.026341 21.601090 -2.976987 4.494653 4.479903 -5.951766 5.307496 5.384472 -5.053198 -6.947448 -12.110241 -8.779125 -32.416440 -70.982455 39.659252 -1.873778 -10.529254 -22.348454 -5.911510 -3.841199 -3.667434 6.786327 -15.975740 -7.169039 19.440345 -68.085334 -35.382555 4.375790 3.318137 27.453153 31.092629 -40.149567 -27.279712 -110.178214 65.112054 -103.324040 -0.600136 -2.242179 5.526919 -0.387428 -0.500389 0.086597 -11.313211 -45.274247 3.961306 99.481734 74.778596 99.735745 -2.693985 -4.210635 -7.875137 0.553674 0.001563 -0.026787
-27.752297 47.693125 29.549516 176.220460 -40.030986 2.999927 0.598787 16.874325 1.889824 0.252894 9.710863 1.389084 0.368403 12.091435 1.780734 0.263216 9.674107 1.413825 1.973658 21.583902 -2.976076 4.400116 4.444519 -5.936387 5.265550 5.264504 -4.954457 -6.927438 -12.118651 -8.751116 -32.263686 -71.175692 39.561395 -1.880798 -10.657013 -22.373775 -5.891768 -3.704557 -3.701655 6.899398 -15.851831 -7.215550 19.446689 -68.143108 -35.044490 4.529186 3.141521 28.228158 31.188000 -40.208247 -27.290089 -110.098381 65.107199 -103.268139 -0.644070 -2.189875 5.524351 -0.389524 -0.495172 0.074295 -11.343479 -45.366787 4.000044 99.433909 74.776054 99.705999 -2.734966 -4.093570 -7.888340 0.569612 0.018772 0.026640
-27.760521 47.696563 29.556022 176.236074 -39.936930 2.948534 0.597772 16.814842 1.907315 0.228967 9.723612 1.345835 0.352608 12.057889 1.763780 0.251078 9.647246 1.400593 1.916633 21.568333 -2.979644 4.298846 4.412143 -5.927783 5.239791 5.163797 -4.845571 -6.910015 -12.156316 -8.722471 -32.179593 -71.346749 39.518752 -1.890247 -10.785155 -22.395872 -5.890439 -3.574670 -3.734626 7.049046 -15.696116 -7.221446 19.538074 -68.187256 -34.832371 4.655754 2.966193 28.911881 31.246082 -40.285049 -27.288123 -110.017359 65.099952 -103.189873 -0.681983 -2.153224 5.496227 -0.379310 -0.480933 0.069866 -11.420105 -45.503149 4.057269 99.493560 74.740652 99.791657 -2.730243 -3.910244 -7.896485 0.536511 -0.012107 0.058094
-27.766234 47.695672 29.569388 176.349014 -39.797319 2.795056 0.522863 16.805021 1.888554 0.230487 9.639987 1.374073 0.335779 12.024942 1.749060 0.238078 9.620917 1.389212 1.853321 21.550833 -2.985506 4.186813 4.375858 -5.921580 5.224047 5.074985 -4.739952 -6.893172 -12.215029 -8.684445 -32.118941 -71.498521 39.479737 -1.893441 -10.910455 -22.414780 -5.910501 -3.460658 -3.764122 7.226458 -15.511322 -7.188174 19.752005 -68.194680 -34.776875 4.762398 2.787665 29.510415 31.206129 -40.425418 -27.283424 -109.964225 65.091132 -103.124246 -0.686792 -2.140174 5.403694 -0.384493 -0.464832 0.108010 -11.586127 -45.741448 4.174620 99.639463 74.695883 100.001790 -2.757525 -3.592659 -7.918583 0.514676 -0.141652 0.092707
-27.776378 47.698491 29.580566 176.439101 -39.677749 2.665682 0.464539 16.778881 1.884009 0.222598 9.595019 1.380041 0.316118 11.992603 1.737166 0.222653 9.595035 1.380122 1.783474 21.528869 -2.991906 4.063216 4.331005 -5.914688 5.203439 4.980868 -4.637213 -6.862196 -12.274168 -8.645060 -32.036851 -71.638910 39.399587 -1.887443 -11.023894 -22.435550 -5.943784 -3.366678 -3.790564 7.413097 -15.302229 -7.116030 20.072196 -68.152444 -34.849333 4.859591 2.609333 30.041931 31.172954 -40.540118 -27.276551 -109.904119 65.087442 -103.053007 -0.703144 -2.125958 5.349403 -0.378601 -0.449888 0.111448 -11.737022 -45.913756 4.311306 99.640293 74.668208 100.033199 -2.836088 -3.341927 -7.951693 0.540290 -0.200491 0.145892
-27.790573 47.701173 29.594318 176.527270 -39.543287 2.546576 0.413094 16.718364 1.883981 0.213225 9.556090 1.391345 0.280304 11.972063 1.713050 0.204230 9.568652 1.374141 1.708118 21.502005 -2.996984 3.929603 4.276785 -5.904083 5.180556 4.890420 -4.536188 -6.829098 -12.334397 -8.605538 -31.891331 -71.778333 39.243757 -1.873762 -11.117457 -22.463616 -5.978958 -3.288693 -3.812728 7.593442 -15.077418 -7.010602 20.448887 -68.059200 -34.991791 4.964983 2.445826 30.523762 31.146557 -40.658675 -27.290308 -109.799095 65.096841 -102.954029 -0.705498 -2.094758 5.349068 -0.392063 -0.442407 0.109106 -11.882876 -46.104811 4.452085 99.664792 74.651277 100.070945 -2.910394 -3.082477 -7.972694 0.564627 -0.259508 0.193852
-27.815917 47.700547 29.614453 176.650814 -39.364601 2.458378 0.323547 16.612102 1.825996 0.192741 9.528101 1.388856 0.293275 11.931966 1.741507 0.141512 9.544743 1.347134 1.628285 21.471725 -2.999439 3.787426 4.215825 -5.887669 5.156537 4.813194 -4.437535 -6.806001 -12.398306 -8.564590 -31.655148 -71.918052 38.995018 -1.849608 -11.189724 -22.505891 -6.008784 -3.221853 -3.830002 7.758924 -14.846204 -6.885470 20.824832 -67.925769 -35.146992 5.090649 2.315956 30.976509 31.140950 -40.802138 -27.399917 -109.703531 65.116663 -102.873181 -0.736277 -2.051157 5.354772 -0.376118 -0.444432 0.094105 -12.013624 -46.351243 4.546154 99.591395 74.638172 99.956262 -2.944996 -2.782726 -7.919566 0.536228 -0.314442 0.212206
